<svg width="281" height="37" viewBox="0 0 281 37" fill="none" xmlns="http://www.w3.org/2000/svg">
<path opacity="0.2" fill-rule="evenodd" clip-rule="evenodd" d="M69.3221 20.9429C89.7034 41.3242 122.748 41.3242 143.129 20.9429C160.387 3.68572 188.366 3.68572 205.623 20.9429C226.004 41.3242 259.049 41.3242 279.43 20.9429C280.993 19.3808 280.993 16.8481 279.43 15.286C277.868 13.7239 275.336 13.7239 273.774 15.286C256.516 32.5432 228.537 32.5432 211.28 15.286C190.899 -5.09533 157.854 -5.09533 137.473 15.286C120.215 32.5432 92.2361 32.5432 74.9789 15.286C54.5976 -5.09534 21.5529 -5.09534 1.17158 15.286C-0.390526 16.8481 -0.390526 19.3808 1.17158 20.9429C2.73368 22.505 5.26633 22.505 6.82844 20.9429C24.0856 3.68571 52.0649 3.68571 69.3221 20.9429Z" fill="black"/>
</svg>
